<svg version="1.2" xmlns="http://www.w3.org/2000/svg" viewBox="0 0 1000 814" width="1000" height="814">
	<title>2676384-ai</title>
	<style>
		tspan { white-space:pre } 
		.s0 { fill: #cce1f7 } 
		.s1 { fill: #3b73ab } 
		.s2 { fill: #00528a } 
		.s3 { fill: #01305a } 
		.s4 { fill: #ffffff } 
		.s5 { fill: #ff7c78 } 
		.s6 { fill: #ffc0ad } 
		.s7 { fill: #fda084 } 
		.s8 { fill: #d84e5a } 
		.s9 { fill: #ff7972 } 
		.t10 { font-size: 40px;text-transform: uppercase;fill: #012f59;font-weight: 700;font-family: "DejaVuSans-Bold", "DejaVu Sans" } 
	</style>
	<g id="BACKGROUND">
		<g id="&lt;Group&gt;">
		</g>
	</g>
	<g id="OBJECTS">
		<g id="&lt;Group&gt;">
			<g id="&lt;Group&gt;">
				<path id="&lt;Path&gt;" class="s0" d="m463.2 187.5c-30.7-111.6-169.4-147.6-248.9-64.2q-1.7 1.8-3.4 3.7c-114 123.8-60.1 429.1 177.7 506.4 237.7 77.4 485.1-63.9 499-190.2 13.9-126.3-95.8-165.9-266.1-130.6-96.2 19.9-139.1-55.6-158.3-125.1z"/>
				<path id="&lt;Path&gt;" class="s0" d="m703.1 213.2c-31.8 5.2-40.6 33.4-16 53.4 8.1 6.6 19.7 12.1 36.2 14.8 62.9 10.4 96.3-17.4 71.1-53.5-15.6-22.3-59.7-19.8-91.3-14.7z"/>
				<path id="&lt;Path&gt;" class="s0" d="m124.9 401.6c-19.8-25.5-48.8-19.7-54.6 11.4-1.9 10.3-1.2 23.1 4.3 38.9 21 60.3 61.4 76.3 81 36.8 12.1-24.3-11.1-61.9-30.7-87.1z"/>
				<path id="&lt;Compound Path&gt;" fill-rule="evenodd" class="s0" d="m542 153.7c-1.5 3.1-3.4 6.1-5.7 8.7l8.7 13-14.2 9.6-8.4-12.4c-3.5 1.5-7.2 2.4-10.9 2.8l-3.4 17.3-16.8-3.3 3.1-15.9c-4.6-1.6-8.8-4.1-12.6-7.3l-13 8.7-9.5-14.2 12.4-8.4c-1.8-4.2-2.8-8.6-3-13l-14.3-2.8 3.3-16.9 13.8 2.7c1.9-4.7 4.8-9 8.6-12.7l-8.4-12.5 14.3-9.6 8.7 13c3.4-1.1 6.8-1.8 10.3-1.9l3.2-16.3 16.8 3.3-3.1 15.8c4.7 1.9 9.1 4.8 12.8 8.6l12.5-8.4 9.5 14.3-13 8.7c1.4 4 2.1 8.2 2.1 12.3l15.8 3.1-3.3 16.9zm-21.8-25.4c-4.8-7.2-14.6-9.1-21.8-4.3-7.2 4.8-9.1 14.6-4.3 21.9 4.9 7.2 14.7 9.1 21.9 4.2 7.2-4.8 9.1-14.6 4.2-21.8z"/>
				<path id="&lt;Compound Path&gt;" fill-rule="evenodd" class="s0" d="m454.2 77.7q-1.2 2.6-3.2 4.8l4.8 7.1-7.8 5.2-4.5-6.8q-3 1.2-6 1.6l-1.9 9.4-9.2-1.8 1.7-8.7c-2.4-0.9-4.8-2.2-6.8-4l-7.1 4.8-5.3-7.8 6.8-4.6c-0.9-2.3-1.5-4.7-1.6-7.1l-7.8-1.5 1.8-9.2 7.5 1.5c1.1-2.6 2.7-5 4.7-7l-4.5-6.8 7.7-5.3 4.8 7.1q2.8-0.9 5.6-1.1l1.8-8.8 9.2 1.8-1.7 8.6c2.6 1 4.9 2.6 7 4.7l6.8-4.6 5.2 7.8-7.1 4.8c0.8 2.2 1.1 4.5 1.1 6.7l8.7 1.7-1.8 9.2zm-11.9-13.9c-2.7-3.9-8-4.9-12-2.3-3.9 2.7-5 8-2.3 11.9 2.6 4 8 5 11.9 2.4 4-2.7 5-8 2.4-12z"/>
				<path id="&lt;Compound Path&gt;" fill-rule="evenodd" class="s0" d="m917.3 124.7q-1.2 2.6-3.1 4.8l4.7 7.1-7.7 5.3-4.6-6.9q-2.9 1.3-6 1.6l-1.8 9.4-9.2-1.8 1.7-8.7c-2.5-0.8-4.8-2.2-6.9-3.9l-7.1 4.7-5.2-7.8 6.8-4.5c-1-2.3-1.5-4.7-1.7-7.1l-7.8-1.6 1.8-9.2 7.6 1.5c1-2.6 2.6-5 4.7-7l-4.6-6.8 7.8-5.2 4.8 7.1q2.7-0.9 5.6-1.1l1.7-8.9 9.2 1.8-1.7 8.6c2.6 1.1 5 2.7 7 4.7l6.8-4.5 5.2 7.8-7.1 4.7c0.8 2.2 1.2 4.5 1.2 6.8l8.6 1.7-1.8 9.2zm-11.9-13.9c-2.6-3.9-8-5-11.9-2.3-4 2.6-5 8-2.4 11.9 2.7 3.9 8 5 12 2.3 3.9-2.6 4.9-8 2.3-11.9z"/>
				<path id="&lt;Compound Path&gt;" fill-rule="evenodd" class="s0" d="m130 239.2q-1.3 2.6-3.2 4.8l4.8 7.1-7.8 5.2-4.6-6.8q-2.9 1.2-5.9 1.6l-1.9 9.4-9.2-1.8 1.7-8.7c-2.5-0.9-4.8-2.2-6.8-4l-7.1 4.8-5.3-7.8 6.8-4.6c-1-2.3-1.5-4.7-1.6-7.1l-7.8-1.5 1.8-9.2 7.5 1.4c1.1-2.5 2.7-4.9 4.7-6.9l-4.6-6.8 7.8-5.3 4.8 7.1q2.8-0.9 5.6-1.1l1.8-8.9 9.2 1.9-1.7 8.6c2.6 1 4.9 2.6 7 4.7l6.8-4.6 5.2 7.8-7.1 4.8c0.7 2.2 1.1 4.5 1.1 6.7l8.7 1.7-1.8 9.2zm-11.9-13.9c-2.7-3.9-8-4.9-12-2.3-3.9 2.6-5 8-2.3 11.9 2.6 4 8 5 11.9 2.4 4-2.7 5-8 2.4-12z"/>
			</g>
		</g>
		<path id="&lt;Path&gt;" class="s0" d="m499.4 698.9c-152.6 0-286-6.7-358.4-16.6-7.6-1-9.9 10-2.5 12.1 49.4 14.1 119.3 15.1 164 19.9 77 8.3 189 6 196.9 32.8 7.8 26.9 8.6 55.3-69.9 51.3-85.2-4.4-71-51.3-71-51.3-79 2.3-267-16.2-287.8-48.2-20.6-31.6 17.1-38.9 18-39.1q0 0 0 0c31.8-16 203.6-28.3 410.7-28.3 229.7 0 415.9 15.1 415.9 33.7 0 18.6-186.2 33.7-415.9 33.7z"/>
		<g id="&lt;Group&gt;">
			<g id="&lt;Group&gt;">
				<path id="&lt;Path&gt;" class="s1" d="m214.3 601.2c-18.3-18.5-58.3-61.7-83.5-110.9-36.2-70.5-72.5-64.2-79.6-39.2-18.4 64.4 90 134.5 135 160.4z"/>
				<g id="&lt;Group&gt;">
					<path id="&lt;Path&gt;" class="s2" d="m204.4 604.8c-31.6-23.7-58.2-51.7-76.4-72.8-24.2-28.3-38.8-50.7-39-50.9-0.5-0.8-1.6-1-2.4-0.5-0.8 0.5-1 1.6-0.5 2.4 0.1 0.2 14.9 22.8 39.2 51.2 18 20.9 44.2 48.5 75.2 72z"/>
				</g>
			</g>
			<g id="&lt;Group&gt;">
				<path id="&lt;Path&gt;" class="s2" d="m209.8 576.4c-8.5-16.9-24.6-52.4-30.6-88.6-8.9-54-34.1-57.5-44-42.6-27.3 40.9 38.1 116.1 59 138.4z"/>
				<g id="&lt;Group&gt;">
					<g id="&lt;Group&gt;">
						<path id="&lt;Path&gt;" class="s3" d="m203.8 579.1c-15.9-22.3-27.6-46.6-35.2-64.4-10-23.7-14.8-41.6-14.9-41.7-0.2-0.7-0.8-1-1.5-0.9-0.6 0.2-1 0.9-0.8 1.5 0 0.2 5 18.1 15 42 7.5 17.8 19.3 42.1 35.2 64.6z"/>
					</g>
				</g>
			</g>
			<g id="&lt;Group&gt;">
				<path id="&lt;Path&gt;" class="s1" d="m810.1 327.1c16.9-19.8 53.6-65.9 75-116.8 30.8-73 67.4-69.5 76.4-45.1 23.2 62.8-79.7 140.8-122.5 170z"/>
				<g id="&lt;Group&gt;">
					<path id="&lt;Path&gt;" class="s2" d="m820.3 330c29.7-26 54.2-55.9 70.7-78.4 22.1-30 34.9-53.4 35.1-53.6 0.4-0.9 1.5-1.2 2.3-0.7 0.9 0.4 1.2 1.5 0.7 2.3-0.1 0.3-13.1 23.9-35.3 54-16.3 22.2-40.3 51.6-69.5 77.5z"/>
				</g>
			</g>
			<g id="&lt;Group&gt;">
				<path id="&lt;Path&gt;" class="s2" d="m812.8 302c7.2-17.5 20.6-54.1 23.8-90.6 4.8-54.5 29.7-59.9 40.7-45.8 30.3 38.8-29.3 118.7-48.4 142.4z"/>
				<g id="&lt;Group&gt;">
					<g id="&lt;Group&gt;">
						<g id="&lt;Group&gt;">
							<path id="&lt;Path&gt;" class="s3" d="m818.9 304.3c14.2-23.5 24.1-48.6 30.3-66.9 8.2-24.4 11.7-42.5 11.7-42.7 0.2-0.7 0.8-1.1 1.4-1 0.7 0.2 1.1 0.8 1 1.4 0 0.2-3.6 18.5-11.8 43-6.2 18.4-16.1 43.5-30.3 67.1z"/>
						</g>
					</g>
				</g>
			</g>
			<path id="&lt;Path&gt;" class="s2" d="m297.4 120.4c3.2-29.5 0.7-58-13.9-51-14.7 7.1-9.6 56 10.4 88.3l4.1 12.6c-14.1-23.8-42.3-43.9-53.9-36.4-11.5 7.5 8.5 19.2 28.6 26.9 15.2 5.8 23.9 13.1 27.9 17.2l19.7 59.6c-22.5-37.6-67.1-69.4-85.4-57.5-18.3 11.9 13.5 30.5 45.3 42.6 24 9.2 37.7 20.7 44.2 27.3l3.9 11.9q3.2-0.6 6.5-1.2l-23.4-70.8c1.5-6.1 4.7-14.4 10.8-24.1 11.6-18.1 20.7-39.4 7-38.5-11.9 0.7-21.5 25.3-22.1 49.7l-8.1-24.5c-1.2-8-2.9-19.4-1.6-32.1z"/>
			<path id="&lt;Path&gt;" class="s1" d="m908.9 470.3c8-28.6 20.8-54.1 31.8-42.2 11.1 12-11.8 55.6-42.2 78.2l-8.6 10.2c21.9-16.9 55.6-25.2 63.6-14 7.9 11.2-15 14.7-36.4 14.5-16.4-0.3-27.1 3.3-32.4 5.7l-40.3 48.1c34.8-26.7 88-39.7 100.6-21.9 12.6 17.8-23.8 23.3-57.8 22.9-25.7-0.4-42.7 5.2-51.1 9l-8.1 9.6q-2.8-1.7-5.6-3.5l47.9-57.2c0.8-6.2 1-15.1-1.2-26.4-4-21-4.6-44.2 7.8-38.4 10.8 5.1 10.6 31.5 2.1 54.5l16.6-19.8c4.1-7 9.9-17 13.3-29.3z"/>
			<g id="&lt;Group&gt;">
				<g id="&lt;Group&gt;">
					<g id="&lt;Group&gt;">
						<path id="&lt;Path&gt;" class="s2" d="m241.6 425.6h32.9c-17.8-2.9-61.9-21.9-65.8-59.8-5-48.1-22.1-47.5-51-52.6-28.8-5-36.8 3.2-55.1-34.1-18.3-37.3-59.2-42-59.2-42 0 0 37.3 40.6 30.2 71.5-7.2 30.9 17.5 43.2 37.3 47.1 19.8 3.9 15 30.5 22.6 47.5 3.4 7.8 17.4 15.9 31.7 22.4z"/>
					</g>
				</g>
				<g id="&lt;Group&gt;">
					<g id="&lt;Group&gt;">
						<g id="&lt;Group&gt;">
							<path id="&lt;Path&gt;" class="s3" d="m170.3 378.3c1.4 14.4 9.7 31.5 22.1 45.8q0.7 0.7 1.4 1.5h3.7q-1.6-1.7-3-3.3c-11.9-13.7-20.1-30.7-21.5-44.3-2.2-21.7-18.9-36.6-54.4-48-20.6-6.7-27.1-31.8-27.2-32.1-0.2-0.7-0.9-1.2-1.7-1-0.7 0.2-1.2 0.9-1 1.7 0.3 1.1 7 26.8 29 34 34.3 11.1 50.5 25.2 52.6 45.7z"/>
						</g>
					</g>
				</g>
			</g>
			<g id="&lt;Group&gt;">
				<g id="&lt;Group&gt;">
					<g id="&lt;Group&gt;">
						<path id="&lt;Path&gt;" class="s1" d="m224.7 425.6h69.2q0-0.1 0-0.2c2-6.9 3.1-14 3.3-21.2 0.8-24.2 1.3-85.1-14.4-100.6-19.7-19.6-59.1-27.3-53.9-56.8 5.2-29.6 1.3-70.5-45.4-77.1-46.7-6.7-83.2-80.1-83.2-80.1 0 0-15.4 59.2 26.7 104.6 42 45.5 26.3 52.1 17.8 94.9-8.4 42.7-18.4 66.2 45.7 98.8 17.3 8.9 27.9 22.5 34.2 37.7z"/>
					</g>
				</g>
				<g id="&lt;Group&gt;">
					<g id="&lt;Group&gt;">
						<path id="&lt;Path&gt;" class="s2" d="m189 243.6c-3 55.4 8.5 86.7 37.5 101.3 18.3 9.2 37.4 29.8 50 53.6 4 7.5 8 16.7 11.2 27.1h4.2c-3.2-11.2-7.5-21-11.8-29-13.2-24.9-32.5-45.6-51.7-55.3-27.4-13.8-38.3-43.9-35.3-97.4 1.9-34.5-30.3-57.5-31.7-58.5-0.9-0.7-2.2-0.4-2.8 0.5-0.7 0.9-0.4 2.2 0.5 2.8 0.3 0.3 31.7 22.8 29.9 54.9z"/>
					</g>
				</g>
			</g>
			<g id="&lt;Group&gt;">
				<g id="&lt;Group&gt;">
					<g id="&lt;Group&gt;">
						<path id="&lt;Path&gt;" class="s2" d="m628.3 315.9h33.7l34.2-22.3c8.4-13.2 15.8-27.6 14.4-36-3-18.4-21.5-38.1-7.1-52.2 14.5-14 28.5-37.9 5.6-59.8-22.8-22-13.8-76.4-13.8-76.4 0 0-31.7 26.2-26.6 67.5 5 41.3-6.1 38.7-27.6 58.7-21.4 20-36.1 28.8-14 71.8 8.2 16.1 6.6 33.5 1.2 48.7z"/>
					</g>
				</g>
				<g id="&lt;Group&gt;">
					<g id="&lt;Group&gt;">
						<g id="&lt;Group&gt;">
							<path id="&lt;Path&gt;" class="s3" d="m666.1 256.7c6.7 12.9 9.1 31.8 6.4 50.5q-0.1 1-0.3 2l-3.1 2.1q0.4-2.3 0.7-4.5c2.5-17.9 0.2-36.6-6.1-48.8-10.1-19.4-4.1-41 19.4-70 13.6-16.8 5.3-41.4 5.2-41.7-0.2-0.7 0.2-1.5 0.9-1.7 0.7-0.2 1.5 0.1 1.7 0.8 0.4 1.1 8.9 26.3-5.7 44.4-22.7 28-28.6 48.6-19.1 66.9z"/>
						</g>
					</g>
				</g>
			</g>
			<g id="&lt;Group&gt;">
				<g id="&lt;Group&gt;">
					<path id="&lt;Path&gt;" class="s1" d="m755.3 315.9c3.9-3.3 8.4-6.3 13.4-8.8 64.1-32.7 54.1-56.1 45.6-98.9-8.5-42.7-24.1-49.4 17.9-94.8 42-45.4 26.7-104.7 26.7-104.7 0 0-36.5 73.5-83.2 80.1-46.7 6.7-50.6 47.6-45.4 77.1 5.2 29.6-34.3 37.2-53.9 56.8-14.3 14.2-15.2 65.7-14.7 93.2z"/>
				</g>
				<g id="&lt;Group&gt;">
					<g id="&lt;Group&gt;">
						<path id="&lt;Path&gt;" class="s2" d="m683.6 315.9c12.6-23.1 31.2-42.8 49-51.8 29-14.7 40.6-45.9 37.5-101.3-1.8-32.2 29.7-54.7 30-54.9 0.9-0.7 1.1-1.9 0.5-2.9-0.7-0.9-2-1.1-2.9-0.5-1.3 1-33.6 24-31.7 58.5 3 53.6-7.9 83.6-35.2 97.5-19.2 9.7-38.6 30.3-51.8 55.2q0 0.1 0 0.2z"/>
					</g>
				</g>
			</g>
		</g>
		<g id="&lt;Group&gt;">
			<g id="&lt;Group&gt;">
				<g id="&lt;Group&gt;">
					<g id="&lt;Group&gt;">
						<path id="&lt;Path&gt;" class="s3" d="m838.8 234.8v361.8c0 14.9-12.1 27-27 27h-616.6c-14.9 0-27-12.1-27-27v-361.8c0-15 12.1-27.1 27-27.1h616.6c14.9 0 27 12.1 27 27.1z"/>
					</g>
					<g id="&lt;Group&gt;">
						<path id="&lt;Path&gt;" class="s4" d="m809 253.1v325.1c0 9.5-7.7 17.3-17.3 17.3h-576.4c-4.1 0-7.8-1.4-10.7-3.7q-1.2-0.9-2.2-2c-2.8-3.1-4.4-7.2-4.4-11.6v-325.1c0-9.5 7.7-17.3 17.3-17.3h576.4c3.2 0 6.2 0.9 8.8 2.4 2.4 1.4 4.4 3.4 5.9 5.8 1.7 2.6 2.6 5.8 2.6 9.1z"/>
					</g>
					<g id="&lt;Group&gt;">
						<g id="&lt;Group&gt;">
							<path id="&lt;Compound Path&gt;" class="s5" d="m449.7 398.8h-15.5v20.3h-38.4v-20.3h-60.8v-25.4l49.7-72.7h40.6l-44.2 67.1h15.9v-18h37.2v18h15.5z"/>
						</g>
						<g id="&lt;Group&gt;">
							<path id="&lt;Compound Path&gt;" fill-rule="evenodd" class="s5" d="m455.3 359.9c0-39.2 22.1-61.9 53-61.9 31 0 53.1 22.7 53.1 61.9 0 39.2-22.1 61.9-53.1 61.9-30.9 0-53-22.7-53-61.9zm66.4 0c0-22.8-5.7-29.9-13.4-29.9-7.7 0-13.4 7.1-13.4 29.9 0 22.8 5.7 29.9 13.4 29.9 7.7 0 13.4-7.1 13.4-29.9z"/>
						</g>
						<g id="&lt;Group&gt;">
							<path id="&lt;Compound Path&gt;" class="s5" d="m684.7 398.8h-15.6v20.3h-38.3v-20.3h-60.8v-25.4l49.7-72.7h40.5l-44.2 67.1h15.9v-18h37.2v18h15.6z"/>
						</g>
					</g>
				</g>
				<g id="&lt;Group&gt;">
					<path id="&lt;Path&gt;" class="s3" d="m901.4 609.1v2.3c0 11.5-3.6 22.2-9.9 30.8-9.6 13.3-25.1 21.9-42.7 21.9h-690.6c-17.6 0-33.2-8.6-42.7-21.9-6.3-8.6-10-19.3-10-30.8v-2.3z"/>
				</g>
				<g id="&lt;Group&gt;" style="mix-blend-mode: screen">
					<path id="&lt;Path&gt;" class="s3" d="m414.3 609.1v0.5c0 4.2 2.8 7.6 6.2 7.6h162.5c3.4 0 6.2-3.4 6.2-7.6v-0.5z"/>
				</g>
				<g id="&lt;Group&gt;">
					<g id="&lt;Group&gt;" style="opacity: .2">
						<path id="&lt;Path&gt;" class="s3" d="m809 253.1v19.2h-611v-19.2c0-3.6 1.1-7.1 3.1-9.9 3.1-4.4 8.3-7.4 14.2-7.4h576.4c5.9 0 11.1 3 14.2 7.4 2 2.8 3.1 6.3 3.1 9.9z"/>
					</g>
					<g id="&lt;Group&gt;">
						<path id="&lt;Path&gt;" class="s4" d="m661.4 259.9h-324.1c-0.8 0-1.5-0.7-1.5-1.6v-6.6c0-0.9 0.7-1.5 1.5-1.5h324.1c0.8 0 1.5 0.6 1.5 1.5v6.6c0 0.9-0.7 1.6-1.5 1.6z"/>
					</g>
					<g id="&lt;Group&gt;">
						<path id="&lt;Path&gt;" class="s3" d="m257.7 255v3.6c0 1-1.1 1.7-2 1.2l-3.1-1.8-3.1-1.8c-0.9-0.5-0.9-1.8 0-2.4l3.1-1.7 3.1-1.8c0.9-0.6 2 0.1 2 1.1z"/>
					</g>
					<g id="&lt;Group&gt;">
						<path id="&lt;Path&gt;" class="s3" d="m273.9 255v3.6c0 1 1.1 1.7 2 1.2l3.1-1.8 3.1-1.8c0.9-0.5 0.9-1.8 0-2.4l-3.1-1.7-3.1-1.8c-0.9-0.6-2 0.1-2 1.1z"/>
					</g>
				</g>
				<g id="&lt;Group&gt;" style="opacity: .2">
					<path id="&lt;Path&gt;" class="s3" d="m805.9 243.2h-604.8c3.1-4.4 8.3-7.4 14.2-7.4h576.4c5.9 0 11.1 3 14.2 7.4z"/>
				</g>
				<g id="&lt;Group&gt;" style="opacity: .1">
					<path id="&lt;Path&gt;" class="s3" d="m683.9 567.7h-369.1c-7.2 0-13.1-5.8-13.1-13 0-7.3 5.9-13.1 13.1-13.1h369.1c7.2 0 13.1 5.8 13.1 13.1 0 7.2-5.9 13-13.1 13z"/>
				</g>
			</g>
		</g>
		<g id="&lt;Group&gt;">
			<g id="&lt;Group&gt;">
				<g id="&lt;Group&gt;">
					<path id="&lt;Path&gt;" class="s6" d="m734.3 505.4c-2.9 5.4-5.7 10.1-8.3 14.2-19.8 30-34.6 23.5-42.5 14.3-2.8-3.3-4.8-6.7-6.3-9.9-2.3-5.2-3.2-9.8-3.4-11.7l3.6 0.8c4.4 2 11.6 4.8 17 4q1-0.2 1.9-0.6c4.8-1.8 11.4-11.2 15.8-18.4 2.9-4.7 4.9-8.5 4.9-8.5z"/>
				</g>
				<g id="&lt;Group&gt;">
					<path id="&lt;Path&gt;" class="s7" d="m734.3 505.4c-2.9 5.4-5.7 10.1-8.3 14.2-5.7-6.2-10.7-15.3-13.9-21.5 2.9-4.7 4.9-8.5 4.9-8.5z"/>
				</g>
				<g id="&lt;Group&gt;">
					<path id="&lt;Path&gt;" class="s7" d="m698.7 518c0 0-4 12.3-21.5 6-2.3-5.2-3.2-9.8-3.4-11.7l3.6 0.8c4.4 2 11.6 4.8 17 4z"/>
				</g>
			</g>
			<g id="&lt;Group&gt;">
				<g id="&lt;Group&gt;">
					<path id="&lt;Path&gt;" class="s6" d="m861.3 549.3c-4 23.1-22.8 6.1-24.4-11.9-0.4-4-0.5-8.2-0.4-12.2 0-3.7 0.2-7.3 0.5-10.5q0-1 0.1-1.9c0.7-7.8 1.7-13.3 1.7-13.3l12.3-15.1c0 0 1.4 4.2 3.2 10.7 1.7 6 3.7 14 5.3 22.4q0.7 3.8 1.2 7.6c1.2 8.7 1.7 17.3 0.5 24.2z"/>
				</g>
				<g id="&lt;Group&gt;">
					<path id="&lt;Path&gt;" class="s7" d="m854.3 495.1c-3.6 6.7-9.6 15.6-17.3 19.6q0-1 0.1-1.9c0.7-7.8 1.7-13.3 1.7-13.3l12.3-15.1c0 0 1.4 4.2 3.2 10.7z"/>
				</g>
				<g id="&lt;Group&gt;">
					<path id="&lt;Path&gt;" class="s7" d="m860.8 525.1c-4.4 2.7-19 1.4-24.3 0.1 0-4.4 0.3-8.7 0.6-12.4l22.5 4.7q0.7 3.8 1.2 7.6z"/>
				</g>
			</g>
			<path id="&lt;Path&gt;" class="s1" d="m731.7 447.9c0 0-17.7 31.4-20.6 42 0 0 12.1 20.3 23.1 22.5l4.1-13.8c0 0 0.4-43.3-6.6-50.7z"/>
			<g id="&lt;Group&gt;">
				<path id="&lt;Path&gt;" class="s1" d="m770.7 431.8l-39 16.1 17.3 133.7c0 0 53.7 7.6 81.4 0v-133.7l-37.9-16.9z"/>
				<g id="&lt;Group&gt;">
					<g id="&lt;Group&gt;">
						<path id="&lt;Path&gt;" class="s2" d="m762.8 504.7c6.5 6.8 15.7 13.2 28.5 16.9 0.5 0.2 1-0.2 1.1-0.7q0 0 0 0c0-0.4-0.2-0.8-0.6-0.9-12.5-3.6-21.4-9.9-27.8-16.5-0.5-0.5-1.3-0.2-1.4 0.5q0 0 0 0c-0.1 0.2 0 0.5 0.2 0.7z"/>
					</g>
					<g id="&lt;Group&gt;">
						<path id="&lt;Path&gt;" class="s2" d="m763.1 492q0 0.2 0.1 0.4 0.6 1.1 1.5 2.3c3.1 4.4 8.9 10.3 19.2 13q0.1 0.1 0.2 0.1c0.3 0 0.6-0.3 0.7-0.6 0.1-0.4-0.1-0.8-0.5-0.9-11.1-3-16.9-9.7-19.8-14.7-0.4-0.7-1.4-0.4-1.4 0.4z"/>
					</g>
					<g id="&lt;Group&gt;">
						<g id="&lt;Group&gt;">
							<path id="&lt;Path&gt;" class="s2" d="m764.5 457.2q0 0 0 0c0 0.5 0.5 0.8 0.9 0.7 9.3-1.8 16.6-5.9 21.5-9.5 6.7-4.9 10.3-9.6 10.4-9.8 0.3-0.3 0.2-0.8-0.1-1.1-0.4-0.2-0.9-0.2-1.1 0.2-0.1 0.1-11.4 14.9-31 18.7-0.4 0.1-0.6 0.4-0.6 0.8z"/>
						</g>
					</g>
				</g>
			</g>
			<g id="&lt;Group&gt;">
				<g id="&lt;Group&gt;">
					<g id="&lt;Group&gt;">
						<g id="&lt;Group&gt;">
							<path id="&lt;Path&gt;" class="s6" d="m704.6 666.7l4.2-21.5h-14.3l-3.5 20.3c0 0 5.7 3.7 13.6 1.2z"/>
						</g>
						<path id="&lt;Path&gt;" class="s2" d="m694.8 666.5c0 0-3.2-4.2-5.7-4-2.5 0.2-21.4 15.7-28 17-6.5 1.3-5.2 6.2-4 8.6 1.3 2.5 52.4-1.5 52.4-1.5 0 0 1.2-15.3-0.5-19.9-1.7-4.6-9.1 0.8-14.2-0.2z"/>
						<g id="&lt;Group&gt;">
							<g id="&lt;Group&gt;">
								<g id="&lt;Group&gt;">
									<g id="&lt;Group&gt;">
										<path id="&lt;Path&gt;" class="s4" d="m684.3 677.2q0.4 0.1 0.7-0.1c0.5-0.2 0.6-0.8 0.4-1.2-0.1-0.2-2.2-3.6-4.9-5-3.6-1.7-6.4 0.3-6.5 0.4-0.4 0.3-0.5 0.9-0.2 1.3 0.3 0.4 0.9 0.5 1.3 0.2 0.1-0.1 2-1.5 4.6-0.2 2.2 1.1 4.1 4.2 4.1 4.2q0.2 0.3 0.5 0.4z"/>
									</g>
								</g>
							</g>
							<g id="&lt;Group&gt;">
								<g id="&lt;Group&gt;">
									<g id="&lt;Group&gt;">
										<path id="&lt;Path&gt;" class="s4" d="m687 674.6q0.4 0.1 0.7-0.1c0.5-0.2 0.6-0.8 0.4-1.2-0.1-0.2-2.2-3.7-4.9-5-3.6-1.8-6.4 0.3-6.5 0.4-0.4 0.3-0.5 0.9-0.1 1.3 0.3 0.4 0.8 0.5 1.2 0.2 0.1-0.1 2.1-1.5 4.6-0.2 2.2 1.1 4.1 4.1 4.1 4.2q0.2 0.3 0.5 0.4z"/>
									</g>
								</g>
							</g>
							<g id="&lt;Group&gt;">
								<g id="&lt;Group&gt;">
									<path id="&lt;Path&gt;" class="s4" d="m680.6 679.4q0.4 0.1 0.7-0.1c0.5-0.3 0.6-0.8 0.4-1.3-0.1-0.1-2.2-3.6-4.9-4.9-3.6-1.8-6.4 0.3-6.5 0.4-0.4 0.3-0.5 0.8-0.2 1.2 0.4 0.5 0.9 0.5 1.3 0.2 0.1 0 2-1.4 4.6-0.2 2.2 1.1 4.1 4.2 4.1 4.2q0.2 0.4 0.5 0.5z"/>
								</g>
							</g>
						</g>
					</g>
				</g>
				<g id="&lt;Group&gt;">
					<g id="&lt;Group&gt;">
						<g id="&lt;Group&gt;">
							<path id="&lt;Path&gt;" class="s5" d="m769.4 568.2c0 0-24.4-60.7-39.6-58.3-23.6 3.7-39.3 76-37.4 143.4l16.2 1c0 0 18-63.6 21.3-80.2 0 0 12.5 43.2 40.5 37.2 20.8-4.5 7.3-25.7-1-43.1z"/>
						</g>
					</g>
				</g>
				<g id="&lt;Group&gt;">
					<path id="&lt;Path&gt;" class="s8" d="m706.6 651.5l-1.9-0.4c0-0.2 4.3-23.9 9.5-47.8 10.6-48.7 14.6-51 15.9-51.7 1.1-0.7 2-0.5 2.6-0.3 2.7 1.2 4 6.9 6 15.5 3.3 13.9 7.8 33 20.1 41l-1.1 1.7c-13-8.5-17.6-28-20.9-42.2-1.7-6.9-3.2-13.3-4.9-14.1-0.1 0-0.3-0.1-0.8 0.1-5.4 3.1-17.6 60.4-24.5 98.2z"/>
				</g>
				<path id="&lt;Path&gt;" class="s8" d="m690.8 648.4l19.8 1.7h0.4l-1.1 6.5-19.5-1.3z"/>
			</g>
			<g id="&lt;Group&gt;">
				<g id="&lt;Group&gt;">
					<path id="&lt;Path&gt;" class="s5" d="m763.2 611.6c0 0 28.4 5.5 66.1-1.3-3.1-15.6-10.1-27.8-21.6-38.7l-50.9 3.7c-3.2 12-0.9 24.1 6.4 36.3z"/>
					<g id="&lt;Group&gt;">
						<g id="&lt;Group&gt;">
							<path id="&lt;Path&gt;" class="s2" d="m755.1 661.9c0 0-6.8-1.5-8.6-1.4-1.8 0.1-13.6 14.5-17.7 15.5-7.4 1.8-6.9 13.5-2.3 13.9 13.3 1.1 35.7-5.5 35.7-5.5 0 0 1.4-15.2 0.3-19.9-1.1-4.7-3.7-1.4-7.4-2.6z"/>
							<g id="&lt;Group&gt;">
								<path id="&lt;Path&gt;" class="s6" d="m759 662.9l5-19.3h-14.3l-3.2 18.6c0 0 4.7 3.2 12.5 0.7z"/>
							</g>
							<g id="&lt;Group&gt;">
								<g id="&lt;Group&gt;">
									<g id="&lt;Group&gt;">
										<g id="&lt;Group&gt;">
											<path id="&lt;Path&gt;" class="s4" d="m744.7 675.2q0.3 0.1 0.7-0.1c0.4-0.3 0.5-0.9 0.2-1.3-0.1-0.1-2.5-3.4-5.4-4.4-3.7-1.4-6.3 1-6.4 1.1-0.4 0.3-0.4 0.9 0 1.3 0.3 0.3 0.9 0.4 1.3 0 0-0.1 1.8-1.6 4.5-0.7 2.3 0.9 4.5 3.8 4.5 3.8q0.2 0.3 0.6 0.3z"/>
										</g>
									</g>
								</g>
								<g id="&lt;Group&gt;">
									<g id="&lt;Group&gt;">
										<path id="&lt;Path&gt;" class="s4" d="m747.1 672.4q0.4 0 0.7-0.2c0.4-0.3 0.5-0.9 0.2-1.3-0.1-0.1-2.5-3.4-5.4-4.4-3.7-1.4-6.3 1-6.4 1.1-0.3 0.3-0.4 0.9 0 1.3 0.3 0.3 0.9 0.4 1.3 0 0.1 0 1.8-1.6 4.5-0.7 2.3 0.9 4.5 3.8 4.5 3.8q0.2 0.3 0.6 0.4z"/>
									</g>
								</g>
								<g id="&lt;Group&gt;">
									<g id="&lt;Group&gt;">
										<path id="&lt;Path&gt;" class="s4" d="m741.2 677.8q0.4 0 0.7-0.2c0.4-0.3 0.5-0.9 0.2-1.3-0.1-0.1-2.5-3.3-5.3-4.4-3.8-1.3-6.3 1-6.4 1.1-0.4 0.3-0.4 0.9-0.1 1.3 0.4 0.4 1 0.4 1.3 0 0.1 0 1.9-1.6 4.6-0.6 2.3 0.8 4.4 3.7 4.4 3.7q0.3 0.3 0.6 0.4z"/>
									</g>
								</g>
							</g>
						</g>
					</g>
					<path id="&lt;Path&gt;" class="s5" d="m825.9 611.3c-3.6 0.8-7 0.7-10.1 0.1q-1.5-0.4-3-0.9c-18.9-6.7-27.5-36.4-27.5-36.4-3.2 16.6-22 80.1-22 80.1l-2.9-0.4-2-0.2-11.1-1.5c-2.1-65.3 14.4-138.5 37.9-142.2 15.2-2.4 39.7 58.3 39.7 58.3 8.2 17.4 21.7 38.6 1 43.1z"/>
					<g id="&lt;Group&gt;">
						<path id="&lt;Path&gt;" class="s8" d="m815.8 611.4q-1.5-0.4-3-0.9c-6.9-11.1-10.5-26.7-13.4-39.3-2.3-10-4.5-19.4-7.4-21.1-0.4-0.2-0.9-0.2-1.4-0.1-2.4 0.8-8.1 8.9-19.2 54.1-5.3 21.5-9.6 43-11 49.7-0.3 1.4-0.4 2.2-0.4 2.2l-2-0.4c0 0 0.1-0.7 0.4-2 1.3-6.7 5.7-28.3 11-50 13-53 18.7-54.9 20.6-55.5q1.6-0.5 3 0.3c3.7 2 5.6 10.6 8.4 22.3 3 13.2 6.8 29.8 14.4 40.7z"/>
					</g>
					<path id="&lt;Path&gt;" class="s8" d="m746 647.5l19.6 3.6h0.3l-1.7 6.5-19.2-3.3z"/>
				</g>
			</g>
			<path id="&lt;Path&gt;" class="s1" d="m830.4 447.9l25.3 36.7c0 0-11.2 21.2-22.2 23.4 0 0-11.5-20-12.8-30.3-1.4-10.2 5.8-28.9 9.7-29.8z"/>
			<g id="&lt;Group&gt;">
				<g id="&lt;Group&gt;">
					<path id="&lt;Path&gt;" class="s3" d="m757.9 391.2c0 14.3 8.8 24.1 23 24.1 14.2 0 24.1-10.6 24.1-24.8 0-14.2-8.4-25-22.6-25-17.1 0-24.5 11.5-24.5 25.7z"/>
				</g>
				<g id="&lt;Group&gt;">
					<path id="&lt;Path&gt;" class="s3" d="m758.7 383.4c0 0-10.5-10.5-6.6-15.4 4-5 9.1-0.2 10.7-5 1.6-4.7 2.2-10.7 8.6-8.3 6.5 2.5 6.8 6.5 12.9 2.9 6.2-3.6 4.8 2.5 10.2 5.2 5.4 2.7 9.2 2.3 8.3 7.4-0.9 5.2 5.2 6.3 2.7 12-2.5 5.7-5.4 2.8-5.4 2.8z"/>
				</g>
				<g id="&lt;Group&gt;">
					<g id="&lt;Group&gt;">
						<path id="&lt;Path&gt;" class="s7" d="m761.1 397.4c0 0-3.9-5.3-6.9-0.9-2.9 4.3 1.2 17.2 8.4 14z"/>
					</g>
					<g id="&lt;Group&gt;">
						<g id="&lt;Group&gt;">
							<path id="&lt;Path&gt;" class="s9" d="m761.1 406.6c-0.3 0-0.6-0.2-0.6-0.5-1.1-4-5.3-5.6-5.3-5.6-0.3-0.1-0.5-0.4-0.4-0.8 0.2-0.3 0.5-0.4 0.8-0.3 0.2 0.1 4.8 1.8 6 6.4 0.1 0.3-0.1 0.7-0.4 0.7q-0.1 0.1-0.1 0.1z"/>
						</g>
					</g>
					<g id="&lt;Group&gt;">
						<g id="&lt;Group&gt;">
							<g id="&lt;Group&gt;">
								<path id="&lt;Path&gt;" class="s9" d="m756.9 404.6q-0.2 0-0.3-0.1c-0.3-0.2-0.4-0.6-0.2-0.9 0 0 0.7-1.1 2.3-1.8 0.3-0.1 0.6 0 0.8 0.3 0.1 0.3 0 0.7-0.3 0.8-1.2 0.5-1.8 1.4-1.8 1.4-0.1 0.2-0.3 0.3-0.5 0.3z"/>
							</g>
						</g>
					</g>
				</g>
				<g id="&lt;Group&gt;">
					<g id="&lt;Group&gt;">
						<path id="&lt;Path&gt;" class="s7" d="m801.8 397.4c0 0 4-5.3 6.9-0.9 2.9 4.3-1.2 17.2-8.4 14z"/>
					</g>
					<g id="&lt;Group&gt;">
						<g id="&lt;Group&gt;">
							<path id="&lt;Path&gt;" class="s9" d="m801.9 406.6c0.2 0 0.5-0.2 0.6-0.5 1.1-4 5.2-5.6 5.2-5.6 0.3-0.1 0.5-0.4 0.4-0.8-0.1-0.3-0.5-0.4-0.8-0.3-0.2 0.1-4.7 1.8-6 6.4-0.1 0.3 0.1 0.7 0.4 0.7q0.1 0.1 0.2 0.1z"/>
						</g>
					</g>
					<g id="&lt;Group&gt;">
						<g id="&lt;Group&gt;">
							<g id="&lt;Group&gt;">
								<path id="&lt;Path&gt;" class="s9" d="m806 404.6q0.2 0 0.3-0.1c0.3-0.2 0.4-0.6 0.2-0.9 0 0-0.7-1.1-2.2-1.8-0.4-0.1-0.7 0-0.9 0.3-0.1 0.3 0 0.7 0.4 0.8 1.1 0.5 1.7 1.4 1.7 1.4 0.1 0.2 0.3 0.3 0.5 0.3z"/>
							</g>
						</g>
					</g>
				</g>
				<g id="&lt;Group&gt;">
					<path id="&lt;Path&gt;" class="s6" d="m791.2 421.5v12.7c0 0-3.8 6.6-9 7-5.1 0.5-9.7-5.6-9.7-5.6v-13.2z"/>
				</g>
				<g id="&lt;Group&gt;">
					<path id="&lt;Path&gt;" class="s7" d="m791.2 421.5v5.6c-3.5 3.9-9.6 4.8-18.7 3.5v-8.2z"/>
				</g>
				<g id="&lt;Group&gt;">
					<path id="&lt;Path&gt;" class="s6" d="m759 397c0.2 2.7 0.5 5.5 1 8.4 1.7 9.4 5.6 18.7 13.9 21.7 18.9 6.7 25.6-9.5 28.3-18.9q0.5-1.6 0.8-3.4c0.4-2.3 0.8-4.8 1-7.3 0.3-3.1 0.5-6.2 0.7-8.9 0.2-5.7-3.2-11-8.6-13.1-7.7-2.9-19.4-5.3-30.6 1-4.1 2.3-6.6 6.7-6.7 11.4-0.1 2.6 0 5.7 0.2 9.1z"/>
				</g>
				<g id="&lt;Group&gt;">
					<g id="&lt;Group&gt;">
						<path id="&lt;Compound Path&gt;" fill-rule="evenodd" class="s3" d="m761.3 397.5c0.7 1.1 4.2 12 5.2 13.6 2.2-4.9 13-1.4 13-1.4q1 0.4 2 0.4 1.1 0 2.1-0.4c0 0 10.9-3.4 13 1.8 1-1.6 4.1-12.3 4.7-14h2.7c-0.2 2.5-0.6 5-1 7.3q-0.3 1.8-0.8 3.4c-2.7 9.4-9.4 25.6-28.3 18.9-8.3-3-12.2-12.3-13.9-21.7-0.5-2.9-0.8-5.7-1-8.4zm10.1 19.9q0 0 0 0c0.9 0.8 1.7 1.5 2.6 1.9 4.7 2.6 5.3 2.2 7.1 2.3 2 0.1 4.6-0.5 7.3-2 0.8-0.4 2.1-1.4 3.4-2.6 0 0 2-6.6-10.3-5-12.4-2.1-10.3 4.1-10.1 5.4z"/>
					</g>
				</g>
				<g id="&lt;Group&gt;">
					<path id="&lt;Path&gt;" class="s3" d="m773.4 399c0 1.4-0.7 2.5-1.6 2.5-0.9 0-1.6-1.1-1.6-2.5 0-1.3 0.7-2.4 1.6-2.4 0.9 0 1.6 1.1 1.6 2.4z"/>
				</g>
				<g id="&lt;Group&gt;">
					<path id="&lt;Path&gt;" class="s3" d="m791.9 399c0 1.4-0.7 2.5-1.6 2.5-0.8 0-1.5-1.1-1.5-2.5 0-1.4 0.7-2.5 1.5-2.5 0.9 0 1.6 1.1 1.6 2.5z"/>
				</g>
				<g id="&lt;Group&gt;">
					<path id="&lt;Path&gt;" class="s3" d="m765 393c0 0 5.2-3.9 10.2-3.2l0.2 2.6c0 0-6.7 1.2-9.6 3.5-0.6-0.9-0.9-1.8-0.8-2.9z"/>
				</g>
				<g id="&lt;Group&gt;">
					<path id="&lt;Path&gt;" class="s3" d="m797.2 393c0 0-5.2-3.9-10.2-3.2l-0.2 2.6c0 0 6.7 1.2 9.6 3.5 0.6-0.9 0.9-1.8 0.8-2.9z"/>
				</g>
				<g id="&lt;Group&gt;">
					<g id="&lt;Group&gt;">
						<path id="&lt;Path&gt;" class="s7" d="m781.7 408.6c1 0 2-0.4 2.2-0.5 0.3-0.1 0.4-0.4 0.3-0.7-0.1-0.4-0.5-0.5-0.8-0.4-0.5 0.2-1.9 0.6-2.4 0.3-0.1-0.1-0.3-0.2-0.3-0.6-0.2-2.1 0.3-9.2 0.3-9.3 0.1-0.4-0.2-0.6-0.5-0.7-0.3 0-0.6 0.2-0.7 0.6 0 0.3-0.6 7.3-0.3 9.5 0.1 0.9 0.5 1.3 0.8 1.5 0.4 0.2 0.9 0.3 1.4 0.3z"/>
					</g>
				</g>
				<g id="&lt;Group&gt;">
					<path id="&lt;Path&gt;" class="s4" d="m780.8 413.1c-4.5 0-4.8 6.8-0.2 7.1q0.2 0 0.5 0 0.2 0 0.5 0c4.6-0.3 4.3-7.1-0.3-7.1z"/>
				</g>
				<g id="&lt;Group&gt;">
					<path id="&lt;Path&gt;" class="s3" d="m804 397.5h-2.7c0.3-2.8 0.7-7.7-1.6-8.4-7.1-2.2 2.2-7.2-1.1-9.8-3.2-2.5-11.3-1.4-16.9-1.6-5.6-0.2-14.7-0.1-16.9 0.4-2.2 0.5-1 4.2-0.2 7 0.8 2.9-2.7 6-3.3 8.9-0.1 0.9-0.1 2.1 0 3.5h-2.3c-0.2-3.6-0.3-6.9-0.2-9.6 0.1-4.7 2.6-9.1 6.7-11.4 11.2-6.3 22.9-3.9 30.6-1 5.4 2.1 8.8 7.4 8.6 13.1-0.2 2.7-0.4 5.8-0.7 8.9z"/>
				</g>
			</g>
			<g id="&lt;Group&gt;">
				<path id="&lt;Path&gt;" class="s2" d="m929.6 610.2c-3.4 13.3-13 23.4-27.6 29.2-3.9 1.6-7.6 2.6-10.8 3.3q0.1-0.2 0.3-0.5c2.3-3.1 4.2-6.5 5.7-10.1 9.7-3.5 20.7-10.5 24.2-24 3.3-13.1-2.1-32.6-13.8-49.8-9.2-13.6-30.3-37.1-67.1-41.6-32.2-4-53 0.9-71.5 5.2-15.6 3.6-30.4 7.1-48.5 3.9-13.3-2.3-23.5-5.7-32.5-8.6-16.6-5.5-27.5-9.1-44.9-2-29.3 12-42.4 61.7-42.5 62.2l-8.2-2.1c0.6-2.2 14.2-54.4 47.5-68 20.3-8.3 33.7-3.9 50.8 1.8 8.7 2.9 18.6 6.1 31.2 8.4 16.4 2.8 29.8-0.3 45.2-3.9 19.1-4.5 40.8-9.5 74.4-5.4 15.7 2 30.4 7.4 43.6 16.1 11.4 7.5 21.7 17.7 29.6 29.2 13.2 19.4 18.9 41.1 14.9 56.7z"/>
				<g id="&lt;Group&gt;">
					<path id="&lt;Path&gt;" class="s5" d="m519.9 656l19.1-60.2c8.1-25.7 35.5-39.9 61.2-31.8 25.7 8.1 39.9 35.5 31.8 61.2l-19.1 60.2c-38.6-12.2-54.2-17.1-93-29.4z"/>
				</g>
			</g>
			<g id="&lt;Group&gt;">
				<g id="&lt;Group&gt;">
					<g id="&lt;Group&gt;">
						<path id="&lt;Path&gt;" class="s6" d="m669.6 513.2c0 0 1.6-3.8 4.9-8.9 1.7-2.6 5.6-3.8 6-0.7 0.3 2.4-1.4 4.3-1.8 6.7 0 0 0.9-1.4 2.8-4.9 1.7-3.2 4.1-3 4.5-0.6 0.3 2.3-0.4 2.2-0.9 4-0.8 2.3-1.9 5.2-1.9 5.2 0 0 0.9-3.4 3.7-7.2 1.3-1.8 2.6-3.7 4.5-1 1 1.4-0.3 5.1-1.3 9.1 0 0 2-5.4 4.7-6.7 2.1-1.1 3.2-0.2 2.4 2.8-1.1 3.8-1.8 4.8-2.6 7-0.8 2.3-3.7 5.5-6 4.7-2.4-0.7-2.9-2.3-4.4-2.4-1.6-0.2-4.2 0-5.3-1-1-1-2.2-1.2-4-1.3-1.8 0-5.4-2.4-5.3-4.8z"/>
					</g>
				</g>
			</g>
			<g id="&lt;Group&gt;">
				<g id="&lt;Group&gt;">
					<path id="&lt;Path&gt;" class="s6" d="m834.6 516.9c0 0 1-4 3.5-9.5 1.3-2.9 4.4-4.9 5.3-1.9 0.7 2.4-0.2 4.7-0.2 7.1 0 0 0.6-1.5 2-5.3 1.2-3.4 3.6-3.5 4.3-1.2 0.7 2.2 0 2.2-0.3 4-0.4 2.4-1 5.4-1 5.4 0 0 0.3-3.4 2.5-7.6 1-1.9 2-4.1 4.3-1.7 1.2 1.2 0.5 5.1 0.1 9.2 0 0 0.5-4.9 2.9-6.7 1.9-1.4 3.9-1.3 3.5 1.7-0.4 3.9-0.9 5.1-1.4 7.4-0.4 2.4-2.8 6-5.3 5.6-2.4-0.4-3.1-1.9-4.7-1.8-1.6 0.2-4.1 0.7-5.3-0.1-1.2-0.8-2.4-0.9-4.2-0.6-1.8 0.2-5.8-1.6-6-4z"/>
				</g>
			</g>
			<g id="&lt;Group&gt;">
				<g id="&lt;Group&gt;">
					<g id="&lt;Group&gt;">
						<path id="&lt;Path&gt;" class="s2" d="m510.5 714.3c0 1.6-0.7 3.1-1.8 4.2-1 1.1-2.5 1.8-4.2 1.8h-23.9v-12h23.9c3.3 0 6 2.7 6 6z"/>
					</g>
					<g id="&lt;Group&gt;">
						<path id="&lt;Path&gt;" class="s2" d="m510.5 757c0 1.6-0.7 3.1-1.8 4.2-1 1.1-2.5 1.8-4.2 1.8h-23.9v-12h23.9c3.3 0 6 2.6 6 6z"/>
					</g>
					<g id="&lt;Group&gt;">
						<g id="&lt;Group&gt;">
							<path id="&lt;Path&gt;" class="s3" d="m491.5 708.3v12h-10.9v-12z"/>
						</g>
					</g>
					<g id="&lt;Group&gt;">
						<g id="&lt;Group&gt;">
							<path id="&lt;Path&gt;" class="s3" d="m491.5 751v12h-10.9v-12z"/>
						</g>
					</g>
				</g>
				<g id="&lt;Group&gt;">
					<path id="&lt;Path&gt;" class="s2" d="m385.8 728.6l-0.4 9.5c-99-3.5-175.9-10.7-228.3-21.5-45-9.2-73.2-21.1-86.1-36.3-6.7-7.8-9.5-16.6-8.3-26.3 2-16.4 16.5-28.4 43.2-36q0.6 4.8 2.1 9.3c-18 5.2-34.1 13.7-35.9 27.8-0.8 7.1 1.1 13.3 6.1 19.1 11.4 13.3 38.5 24.4 80.8 33.1 51.9 10.7 128.2 17.8 226.8 21.3z"/>
				</g>
				<g id="&lt;Group&gt;">
					<path id="&lt;Path&gt;" class="s5" d="m480.6 784.4h-63.2c-26.9 0-48.8-21.9-48.8-48.8 0-26.9 21.9-48.7 48.8-48.7h63.2c0 40.5 0 56.8 0 97.5z"/>
				</g>
			</g>
		</g>
		<g id="&lt;Group&gt;">
			<g id="&lt;Group&gt;">
				<g id="&lt;Group&gt;">
					<g id="&lt;Group&gt;">
						<path id="&lt;Path&gt;" class="s5" d="m914.3 353.9v32.3c0 4.3-3.5 7.8-7.8 7.8h-58.7l-17.7 6.3c-1.8 0.7-3.6-1.1-2.9-2.9l6.7-17.3v-26.2c0-4.3 3.5-7.7 7.8-7.7h64.8c4.3 0 7.8 3.4 7.8 7.7z"/>
					</g>
				</g>
				<g id="&lt;Group&gt;" style="mix-blend-mode: screen">
					<g id="&lt;Group&gt;">
						<path id="&lt;Path&gt;" class="s5" d="m863.2 371c0 3.1-2.5 5.6-5.6 5.6-3 0-5.6-2.5-5.6-5.6 0-3.1 2.6-5.6 5.6-5.6 3.1 0 5.6 2.5 5.6 5.6z"/>
						<path id="&lt;Path&gt;" class="s5" d="m881 371c0 3.1-2.5 5.6-5.6 5.6-3.1 0-5.6-2.5-5.6-5.6 0-3.1 2.5-5.6 5.6-5.6 3.1 0 5.6 2.5 5.6 5.6z"/>
						<path id="&lt;Path&gt;" class="s5" d="m898.7 371c0 3.1-2.5 5.6-5.6 5.6-3.1 0-5.6-2.5-5.6-5.6 0-3.1 2.5-5.6 5.6-5.6 3.1 0 5.6 2.5 5.6 5.6z"/>
					</g>
				</g>
			</g>
			<g id="&lt;Group&gt;">
				<g id="&lt;Group&gt;">
					<path id="&lt;Compound Path&gt;" fill-rule="evenodd" class="s5" d="m617.7 157.1c0-7.3 6-13.2 13.3-13.2 7.3 0 13.2 5.9 13.2 13.2 0 7.3-5.9 13.2-13.2 13.2-7.3 0-13.3-5.9-13.3-13.2zm4.2 0c0 5 4.1 9.1 9.1 9.1 5 0 9-4.1 9-9.1 0-5-4-9.1-9-9.1-5 0-9.1 4.1-9.1 9.1z"/>
				</g>
				<g id="&lt;Group&gt;">
					<path id="&lt;Compound Path&gt;" fill-rule="evenodd" class="s5" d="m573.6 100.5c0-7.3 5.9-13.2 13.2-13.2 7.3 0 13.2 5.9 13.2 13.2 0 7.3-5.9 13.2-13.2 13.2-7.3 0-13.2-5.9-13.2-13.2zm4.1 0c0 5 4.1 9 9.1 9 5 0 9-4 9-9 0-5-4-9.1-9-9.1-5 0-9.1 4.1-9.1 9.1z"/>
				</g>
				<g id="&lt;Group&gt;">
					<g id="&lt;Group&gt;">
						<g id="&lt;Group&gt;">
							<path id="&lt;Path&gt;" class="s1" d="m577.7 163.8c1.1 0 2.1-1 2.1-2.1v-9.2c0-1.1-1-2-2.1-2-1.1 0-2.1 0.9-2.1 2v9.2c0 1.1 1 2.1 2.1 2.1z"/>
						</g>
						<g id="&lt;Group&gt;">
							<path id="&lt;Path&gt;" class="s1" d="m577.7 179.8c1.1 0 2.1-1 2.1-2.1v-9.2c0-1.1-1-2-2.1-2-1.1 0-2.1 0.9-2.1 2v9.2c0 1.1 1 2.1 2.1 2.1z"/>
						</g>
					</g>
					<g id="&lt;Group&gt;">
						<g id="&lt;Group&gt;">
							<path id="&lt;Path&gt;" class="s1" d="m564.9 167.2h8.2c1.1 0 2.1-0.9 2.1-2.1 0-1.1-1-2.1-2.1-2.1h-8.2c-1.2 0-2.1 1-2.1 2.1 0 1.2 0.9 2.1 2.1 2.1z"/>
						</g>
						<g id="&lt;Group&gt;">
							<path id="&lt;Path&gt;" class="s1" d="m582.3 167.2h8.2c1.2 0 2.1-0.9 2.1-2.1 0-1.1-0.9-2.1-2.1-2.1h-8.2c-1.1 0-2.1 1-2.1 2.1 0 1.2 1 2.1 2.1 2.1z"/>
						</g>
					</g>
				</g>
				<g id="&lt;Group&gt;">
					<g id="&lt;Group&gt;">
						<g id="&lt;Group&gt;">
							<g id="&lt;Group&gt;">
								<path id="&lt;Path&gt;" class="s2" d="m633.5 102.8c1.2 0 2.1-0.9 2.1-2.1v-9.1c0-1.1-0.9-2.1-2.1-2.1-1.1 0-2.1 1-2.1 2.1v9.1c0 1.2 1 2.1 2.1 2.1z"/>
							</g>
							<g id="&lt;Group&gt;">
								<path id="&lt;Path&gt;" class="s2" d="m633.5 118.8c1.2 0 2.1-0.9 2.1-2.1v-9.1c0-1.1-0.9-2.1-2.1-2.1-1.1 0-2.1 1-2.1 2.1v9.1c0 1.2 1 2.1 2.1 2.1z"/>
							</g>
						</g>
						<g id="&lt;Group&gt;">
							<g id="&lt;Group&gt;">
								<path id="&lt;Path&gt;" class="s2" d="m620.7 106.2h8.2c1.1 0 2.1-0.9 2.1-2 0-1.2-1-2.1-2.1-2.1h-8.2c-1.2 0-2.1 0.9-2.1 2.1 0 1.1 0.9 2 2.1 2z"/>
							</g>
							<g id="&lt;Group&gt;">
								<path id="&lt;Path&gt;" class="s2" d="m638.1 106.2h8.3c1.1 0 2-0.9 2-2 0-1.2-0.9-2.1-2-2.1h-8.3c-1.1 0-2 0.9-2 2.1 0 1.1 0.9 2 2 2z"/>
							</g>
						</g>
					</g>
				</g>
			</g>
			<g id="&lt;Group&gt;">
				<g id="&lt;Group&gt;">
					<g id="&lt;Group&gt;">
						<path id="&lt;Compound Path&gt;" fill-rule="evenodd" class="s5" d="m235.6 66.5c0-7.3 5.9-13.2 13.2-13.2 7.3 0 13.2 5.9 13.2 13.2 0 7.3-5.9 13.2-13.2 13.2-7.3 0-13.2-5.9-13.2-13.2zm4.1 0c0 5 4.1 9.1 9.1 9.1 5 0 9.1-4.1 9.1-9.1 0-5-4.1-9.1-9.1-9.1-5 0-9.1 4.1-9.1 9.1z"/>
					</g>
				</g>
				<g id="&lt;Group&gt;">
					<path id="&lt;Compound Path&gt;" fill-rule="evenodd" class="s1" d="m184.7 91.4c0-7.3 6-13.2 13.3-13.2 7.2 0 13.2 5.9 13.2 13.2 0 7.3-6 13.2-13.2 13.2-7.3 0-13.3-5.9-13.3-13.2zm4.2 0c0 5 4.1 9.1 9.1 9.1 5 0 9-4.1 9-9.1 0-5-4-9.1-9-9.1-5 0-9.1 4.1-9.1 9.1z"/>
				</g>
				<g id="&lt;Group&gt;">
					<g id="&lt;Group&gt;">
						<g id="&lt;Group&gt;">
							<path id="&lt;Path&gt;" class="s5" d="m177.1 127c1.2 0 2.1-0.9 2.1-2.1v-9.1c0-1.2-0.9-2.1-2.1-2.1-1.1 0-2 0.9-2 2.1v9.1c0 1.2 0.9 2.1 2 2.1z"/>
						</g>
						<g id="&lt;Group&gt;">
							<path id="&lt;Path&gt;" class="s5" d="m177.1 143c1.2 0 2.1-0.9 2.1-2.1v-9.1c0-1.2-0.9-2.1-2.1-2.1-1.1 0-2 0.9-2 2.1v9.1c0 1.2 0.9 2.1 2 2.1z"/>
						</g>
					</g>
					<g id="&lt;Group&gt;">
						<g id="&lt;Group&gt;">
							<path id="&lt;Path&gt;" class="s5" d="m164.3 130.4h8.2c1.2 0 2.1-0.9 2.1-2.1 0-1.1-0.9-2-2.1-2h-8.2c-1.2 0-2.1 0.9-2.1 2 0 1.2 0.9 2.1 2.1 2.1z"/>
						</g>
						<g id="&lt;Group&gt;">
							<path id="&lt;Path&gt;" class="s5" d="m181.7 130.4h8.3c1.1 0 2-0.9 2-2.1 0-1.1-0.9-2-2-2h-8.3c-1.1 0-2 0.9-2 2 0 1.2 0.9 2.1 2 2.1z"/>
						</g>
					</g>
				</g>
				<g id="&lt;Group&gt;">
					<g id="&lt;Group&gt;">
						<g id="&lt;Group&gt;">
							<g id="&lt;Group&gt;">
								<path id="&lt;Path&gt;" class="s2" d="m214.3 41.4c1.2 0 2.1-0.9 2.1-2v-9.2c0-1.1-0.9-2.1-2.1-2.1-1.1 0-2.1 1-2.1 2.1v9.2c0 1.1 1 2 2.1 2z"/>
							</g>
							<g id="&lt;Group&gt;">
								<path id="&lt;Path&gt;" class="s2" d="m214.3 57.4c1.2 0 2.1-0.9 2.1-2v-9.2c0-1.1-0.9-2-2.1-2-1.1 0-2.1 0.9-2.1 2v9.2c0 1.1 1 2 2.1 2z"/>
							</g>
						</g>
						<g id="&lt;Group&gt;">
							<g id="&lt;Group&gt;">
								<path id="&lt;Path&gt;" class="s2" d="m201.5 44.9h8.2c1.1 0 2.1-1 2.1-2.1 0-1.1-1-2.1-2.1-2.1h-8.2c-1.2 0-2.1 1-2.1 2.1 0 1.1 0.9 2.1 2.1 2.1z"/>
							</g>
							<g id="&lt;Group&gt;">
								<path id="&lt;Path&gt;" class="s2" d="m218.9 44.9h8.2c1.2 0 2.1-1 2.1-2.1 0-1.1-0.9-2.1-2.1-2.1h-8.2c-1.1 0-2 1-2 2.1 0 1.1 0.9 2.1 2 2.1z"/>
							</g>
						</g>
					</g>
				</g>
			</g>
		</g>
	</g>
	<text id="Page Not Found" style="transform: matrix(1,0,0,1,304,479)" >
		<tspan x="0" y="0" class="t10">P</tspan><tspan  y="0" class="t10">A</tspan><tspan  y="0" class="t10">G</tspan><tspan  y="0" class="t10">E</tspan><tspan  y="0" class="t10"> </tspan><tspan  y="0" class="t10">N</tspan><tspan  y="0" class="t10">O</tspan><tspan  y="0" class="t10">T</tspan><tspan  y="0" class="t10"> </tspan><tspan  y="0" class="t10">F</tspan><tspan  y="0" class="t10">O</tspan><tspan  y="0" class="t10">U</tspan><tspan  y="0" class="t10">N</tspan><tspan  y="0" class="t10">D
</tspan>
	</text>
</svg>